# xmcd CD database file
#
# Track frame offsets:
#	150
#	44082
#	93195
#	114322
#	165535
#	212472
#	258825
#
# Disc length: 3906 seconds
#
# Revision: 0
# Processed by: cddbd v1.5.1PL0 Copyright (c) Steve Scherf et al.
# Submitted via: CDex 1.51
#
DISCID=520f4007
DTITLE=Buddy Childers and Jack Nimitz - Live At The Royal Palms Inn
DYEAR=1900
DGENRE=Jazz
TTITLE0=Bernie's Tune
TTITLE1=Buffy
TTITLE2=Sophisticated Lady
TTITLE3=I'll Remember April
TTITLE4=In A Mellow Tone
TTITLE5=Just Friends
TTITLE6=Center Piece
EXTD=
EXTT0=
EXTT1=
EXTT2=
EXTT3=
EXTT4=
EXTT5=
EXTT6=
PLAYORDER=
